# Created by FreeCAD <http://www.freecadweb.org>
v -0.032361 -0.023930 -0.078390
v -0.026765 -0.030145 -0.188390
v -0.026765 -0.030145 -0.078390
v -0.020000 -0.035060 -0.188390
v -0.020000 -0.035060 -0.078390
v -0.012361 -0.038461 -0.188390
v -0.012361 -0.038461 -0.078390
v 0.040000 -0.000419 -0.188390
v 0.039126 0.007897 -0.188390
v 0.040000 -0.000419 -0.078390
v 0.039126 0.007897 -0.078390
v -0.004181 -0.040200 -0.188390
v -0.004181 -0.040200 -0.078390
v 0.036542 0.015850 -0.188390
v 0.036542 0.015850 -0.078390
v 0.004181 -0.040200 -0.188390
v 0.004181 -0.040200 -0.078390
v 0.032361 0.023092 -0.188390
v 0.032361 0.023092 -0.078390
v 0.012361 -0.038461 -0.188390
v 0.012361 -0.038461 -0.078390
v 0.026765 0.029307 -0.188390
v 0.026765 0.029307 -0.078390
v 0.020000 -0.035060 -0.188390
v 0.020000 -0.035060 -0.078390
v 0.020000 0.034222 -0.188390
v 0.020000 0.034222 -0.078390
v 0.026765 -0.030145 -0.188390
v 0.026765 -0.030145 -0.078390
v 0.012361 0.037623 -0.188390
v 0.012361 0.037623 -0.078390
v 0.032361 -0.023930 -0.188390
v 0.032361 -0.023930 -0.078390
v 0.004181 0.039362 -0.188390
v 0.004181 0.039362 -0.078390
v 0.036542 -0.016688 -0.188390
v 0.036542 -0.016688 -0.078390
v -0.004181 0.039362 -0.188390
v -0.004181 0.039362 -0.078390
v 0.039126 -0.008735 -0.188390
v 0.039126 -0.008735 -0.078390
v -0.012361 0.037623 -0.188390
v -0.012361 0.037623 -0.078390
v -0.020000 0.034222 -0.188390
v -0.020000 0.034222 -0.078390
v -0.026765 0.029307 -0.188390
v -0.026765 0.029307 -0.078390
v -0.032361 0.023092 -0.188390
v -0.032361 0.023092 -0.078390
v -0.036542 0.015850 -0.188390
v -0.036542 0.015850 -0.078390
v -0.039126 0.007897 -0.188390
v -0.039126 0.007897 -0.078390
v -0.040000 -0.000419 -0.188390
v -0.040000 -0.000419 -0.078390
v -0.039126 -0.008735 -0.188390
v -0.039126 -0.008735 -0.078390
v -0.036542 -0.016688 -0.188390
v -0.036542 -0.016688 -0.078390
v -0.032361 -0.023930 -0.188390
vn -0.743145 -0.669131 0.000000
vn -0.587785 -0.809017 0.000000
vn -0.587785 -0.809017 0.000000
vn -0.406737 -0.913545 0.000000
vn -0.406737 -0.913545 0.000000
vn 0.994522 0.104528 -0.000000
vn 0.994522 0.104528 0.000000
vn -0.207912 -0.978148 0.000000
vn -0.207912 -0.978148 0.000000
vn 0.951057 0.309017 0.000000
vn 0.951057 0.309017 -0.000000
vn 0.000000 -1.000000 0.000000
vn 0.000000 -1.000000 0.000000
vn 0.866025 0.500000 0.000000
vn 0.866025 0.500000 -0.000000
vn 0.207912 -0.978148 0.000000
vn 0.207912 -0.978148 0.000000
vn 0.743145 0.669131 0.000000
vn 0.743145 0.669131 -0.000000
vn 0.406737 -0.913545 0.000000
vn 0.406737 -0.913545 0.000000
vn 0.587785 0.809017 0.000000
vn 0.587785 0.809017 -0.000000
vn 0.587785 -0.809017 0.000000
vn 0.406736 0.913546 0.000000
vn 0.587785 -0.809017 0.000000
vn 0.406736 0.913546 -0.000000
vn 0.743145 -0.669131 0.000000
vn 0.207912 0.978148 0.000000
vn 0.743145 -0.669131 0.000000
vn 0.207912 0.978148 -0.000000
vn 0.866025 -0.500000 0.000000
vn 0.866025 -0.500000 0.000000
vn 0.000000 1.000000 0.000000
vn 0.000000 1.000000 -0.000000
vn 0.951057 -0.309017 0.000000
vn 0.951057 -0.309017 0.000000
vn -0.207912 0.978148 0.000000
vn 0.994522 -0.104528 0.000000
vn -0.207912 0.978148 0.000000
vn 0.994522 -0.104528 0.000000
vn -0.406736 0.913546 0.000000
vn -0.406736 0.913546 0.000000
vn -0.587785 0.809017 0.000000
vn -0.587785 0.809017 0.000000
vn -0.743145 0.669131 0.000000
vn -0.743145 0.669131 0.000000
vn -0.866025 0.500000 0.000000
vn -0.866025 0.500000 0.000000
vn -0.951057 0.309017 0.000000
vn -0.951057 0.309017 0.000000
vn -0.994522 0.104528 0.000000
vn -0.994522 0.104528 0.000000
vn -0.994522 -0.104528 0.000000
vn -0.994522 -0.104528 0.000000
vn -0.951057 -0.309017 0.000000
vn -0.951057 -0.309017 0.000000
vn -0.866025 -0.500000 0.000000
vn -0.866025 -0.500000 0.000000
vn -0.743145 -0.669131 0.000000
vn 0.000000 0.000000 -1.000000
vn 0.000000 0.000000 -1.000000
vn 0.000000 0.000000 -1.000000
vn -0.000000 -0.000000 -1.000000
vn -0.000000 -0.000000 -1.000000
vn -0.000000 -0.000000 -1.000000
vn 0.000000 -0.000000 -1.000000
vn 0.000000 -0.000000 -1.000000
vn 0.000000 -0.000000 -1.000000
vn 0.000000 -0.000000 -1.000000
vn 0.000000 -0.000000 -1.000000
vn 0.000000 -0.000000 -1.000000
vn 0.000000 -0.000000 -1.000000
vn 0.000000 0.000000 -1.000000
vn 0.000000 0.000000 -1.000000
vn 0.000000 0.000000 -1.000000
vn 0.000000 0.000000 -1.000000
vn 0.000000 0.000000 -1.000000
vn 0.000000 0.000000 -1.000000
vn 0.000000 0.000000 -1.000000
vn 0.000000 0.000000 -1.000000
vn 0.000000 0.000000 -1.000000
vn 0.000000 0.000000 -1.000000
vn 0.000000 0.000000 -1.000000
vn 0.000000 0.000000 -1.000000
vn 0.000000 0.000000 -1.000000
vn 0.000000 0.000000 -1.000000
vn 0.000000 0.000000 -1.000000
vn 0.000000 0.000000 1.000000
vn 0.000000 0.000000 1.000000
vn 0.000000 0.000000 1.000000
vn 0.000000 0.000000 1.000000
vn 0.000000 0.000000 1.000000
vn 0.000000 0.000000 1.000000
vn 0.000000 0.000000 1.000000
vn 0.000000 0.000000 1.000000
vn 0.000000 0.000000 1.000000
vn 0.000000 0.000000 1.000000
vn 0.000000 0.000000 1.000000
vn 0.000000 0.000000 1.000000
vn 0.000000 0.000000 1.000000
vn 0.000000 0.000000 1.000000
vn 0.000000 0.000000 1.000000
vn 0.000000 0.000000 1.000000
vn 0.000000 0.000000 1.000000
vn 0.000000 0.000000 1.000000
vn 0.000000 0.000000 1.000000
vn 0.000000 0.000000 1.000000
vn 0.000000 0.000000 1.000000
vn 0.000000 0.000000 1.000000
vn 0.000000 0.000000 1.000000
vn 0.000000 0.000000 1.000000
vn 0.000000 0.000000 1.000000
vn 0.000000 0.000000 1.000000
vn 0.000000 0.000000 1.000000
vn 0.000000 0.000000 1.000000
f 1//1 2//1 3//1
f 2//2 4//2 3//2
f 3//3 4//3 5//3
f 4//4 6//4 5//4
f 5//5 6//5 7//5
f 8//6 9//6 10//6
f 10//7 9//7 11//7
f 6//8 12//8 7//8
f 7//9 12//9 13//9
f 11//10 14//10 15//10
f 9//11 14//11 11//11
f 12//12 16//12 13//12
f 13//13 16//13 17//13
f 15//14 18//14 19//14
f 14//15 18//15 15//15
f 17//16 20//16 21//16
f 16//17 20//17 17//17
f 19//18 22//18 23//18
f 18//19 22//19 19//19
f 21//20 24//20 25//20
f 20//21 24//21 21//21
f 23//22 26//22 27//22
f 22//23 26//23 23//23
f 25//24 28//24 29//24
f 27//25 30//25 31//25
f 24//26 28//26 25//26
f 26//27 30//27 27//27
f 29//28 32//28 33//28
f 31//29 34//29 35//29
f 28//30 32//30 29//30
f 30//31 34//31 31//31
f 33//32 36//32 37//32
f 32//33 36//33 33//33
f 35//34 38//34 39//34
f 34//35 38//35 35//35
f 37//36 40//36 41//36
f 36//37 40//37 37//37
f 38//38 42//38 39//38
f 41//39 8//39 10//39
f 39//40 42//40 43//40
f 40//41 8//41 41//41
f 42//42 44//42 43//42
f 43//43 44//43 45//43
f 44//44 46//44 45//44
f 45//45 46//45 47//45
f 46//46 48//46 47//46
f 47//47 48//47 49//47
f 48//48 50//48 49//48
f 49//49 50//49 51//49
f 50//50 52//50 51//50
f 51//51 52//51 53//51
f 52//52 54//52 53//52
f 53//53 54//53 55//53
f 54//54 56//54 55//54
f 55//55 56//55 57//55
f 56//56 58//56 57//56
f 57//57 58//57 59//57
f 58//58 60//58 59//58
f 59//59 60//59 1//59
f 60//60 2//60 1//60
f 8//61 22//61 9//61
f 9//62 22//62 14//62
f 14//63 22//63 18//63
f 26//64 22//64 30//64
f 30//65 22//65 34//65
f 34//66 22//66 38//66
f 38//67 22//67 42//67
f 42//68 22//68 44//68
f 44//69 22//69 46//69
f 46//70 22//70 48//70
f 48//71 22//71 50//71
f 50//72 22//72 52//72
f 52//73 22//73 54//73
f 54//74 22//74 56//74
f 56//75 22//75 58//75
f 58//76 22//76 60//76
f 60//77 22//77 2//77
f 2//78 22//78 4//78
f 4//79 22//79 6//79
f 6//80 22//80 12//80
f 12//81 22//81 16//81
f 16//82 22//82 20//82
f 20//83 22//83 24//83
f 24//84 22//84 28//84
f 28//85 22//85 32//85
f 32//86 22//86 36//86
f 36//87 22//87 40//87
f 40//88 22//88 8//88
f 23//89 10//89 11//89
f 23//90 11//90 15//90
f 23//91 15//91 19//91
f 23//92 27//92 31//92
f 23//93 31//93 35//93
f 23//94 35//94 39//94
f 23//95 39//95 43//95
f 23//96 43//96 45//96
f 23//97 45//97 47//97
f 23//98 47//98 49//98
f 23//99 49//99 51//99
f 23//100 51//100 53//100
f 23//101 53//101 55//101
f 23//102 55//102 57//102
f 23//103 57//103 59//103
f 23//104 59//104 1//104
f 23//105 1//105 3//105
f 23//106 3//106 5//106
f 23//107 5//107 7//107
f 23//108 7//108 13//108
f 23//109 13//109 17//109
f 23//110 17//110 21//110
f 23//111 21//111 25//111
f 23//112 25//112 29//112
f 23//113 29//113 33//113
f 23//114 33//114 37//114
f 23//115 37//115 41//115
f 23//116 41//116 10//116
