# Created by FreeCAD <http://www.freecadweb.org>
v -0.060716 -0.011350 0.075000
v -0.057597 -0.022313 0.000000
v -0.057597 -0.022313 0.075000
v -0.052516 -0.032517 0.000000
v -0.052516 -0.032517 0.075000
v -0.045647 -0.041613 0.000000
v -0.045647 -0.041613 0.075000
v 0.061768 0.000000 0.000000
v 0.060716 0.011350 0.000000
v 0.061768 0.000000 0.075000
v 0.060716 0.011350 0.075000
v -0.037224 -0.049292 0.000000
v -0.037224 -0.049292 0.075000
v 0.057597 0.022313 0.000000
v 0.057597 0.022313 0.075000
v -0.027532 -0.055292 0.000000
v -0.027532 -0.055292 0.075000
v 0.052516 0.032517 0.000000
v 0.052516 0.032517 0.075000
v -0.016904 -0.059410 0.000000
v -0.016904 -0.059410 0.075000
v 0.045647 0.041613 0.000000
v 0.045647 0.041613 0.075000
v -0.005699 -0.061505 0.000000
v -0.005699 -0.061505 0.075000
v 0.037224 0.049292 0.000000
v 0.037224 0.049292 0.075000
v 0.005699 -0.061505 0.000000
v 0.005699 -0.061505 0.075000
v 0.027532 0.055292 0.000000
v 0.027532 0.055292 0.075000
v 0.016904 -0.059410 0.000000
v 0.016904 -0.059410 0.075000
v 0.016904 0.059410 0.000000
v 0.016904 0.059410 0.075000
v 0.027532 -0.055292 0.000000
v 0.027532 -0.055292 0.075000
v 0.005699 0.061505 0.000000
v 0.005699 0.061505 0.075000
v 0.037224 -0.049292 0.000000
v 0.037224 -0.049292 0.075000
v -0.005699 0.061505 0.000000
v -0.005699 0.061505 0.075000
v 0.045647 -0.041613 0.000000
v 0.045647 -0.041613 0.075000
v -0.016904 0.059410 0.000000
v -0.016904 0.059410 0.075000
v 0.052516 -0.032517 0.000000
v 0.052516 -0.032517 0.075000
v -0.027532 0.055292 0.000000
v -0.027532 0.055292 0.075000
v 0.057597 -0.022313 0.000000
v 0.057597 -0.022313 0.075000
v -0.037224 0.049292 0.000000
v -0.037224 0.049292 0.075000
v 0.060716 -0.011350 0.000000
v 0.060716 -0.011350 0.075000
v -0.045647 0.041613 0.000000
v -0.045647 0.041613 0.075000
v -0.052516 0.032517 0.000000
v -0.052516 0.032517 0.075000
v -0.057597 0.022313 0.000000
v -0.057597 0.022313 0.075000
v -0.060716 0.011350 0.000000
v -0.060716 0.011350 0.075000
v -0.061768 0.000000 0.000000
v -0.061768 0.000000 0.075000
v -0.060716 -0.011350 0.000000
vn -0.961826 -0.273663 0.000000
vn -0.895163 -0.445738 0.000000
vn -0.895163 -0.445738 0.000000
vn -0.798017 -0.602634 0.000000
vn -0.798017 -0.602634 0.000000
vn 0.995734 0.092268 -0.000000
vn 0.995734 0.092268 0.000000
vn -0.673696 -0.739009 0.000000
vn -0.673696 -0.739009 0.000000
vn 0.961826 0.273663 0.000000
vn 0.961826 0.273663 -0.000000
vn -0.526432 -0.850217 0.000000
vn -0.526432 -0.850217 0.000000
vn 0.895163 0.445738 0.000000
vn 0.895163 0.445738 -0.000000
vn -0.361242 -0.932472 0.000000
vn -0.361242 -0.932472 0.000000
vn 0.798017 0.602634 0.000000
vn 0.798017 0.602634 -0.000000
vn -0.183750 -0.982973 0.000000
vn -0.183750 -0.982973 0.000000
vn 0.673696 0.739009 0.000000
vn 0.673696 0.739009 -0.000000
vn 0.000000 -1.000000 0.000000
vn 0.000000 -1.000000 0.000000
vn 0.526432 0.850217 0.000000
vn 0.526432 0.850217 -0.000000
vn 0.183750 -0.982973 0.000000
vn 0.361242 0.932472 -0.000000
vn 0.183750 -0.982973 0.000000
vn 0.361242 0.932472 0.000000
vn 0.361242 -0.932472 0.000000
vn 0.361242 -0.932472 0.000000
vn 0.183750 0.982973 -0.000000
vn 0.183750 0.982973 0.000000
vn 0.526432 -0.850217 0.000000
vn 0.526432 -0.850217 0.000000
vn 0.000000 1.000000 -0.000000
vn 0.000000 1.000000 0.000000
vn 0.673696 -0.739009 0.000000
vn 0.673696 -0.739009 0.000000
vn -0.183750 0.982973 0.000000
vn -0.183750 0.982973 0.000000
vn 0.798017 -0.602634 0.000000
vn 0.798017 -0.602634 0.000000
vn -0.361242 0.932472 0.000000
vn -0.361242 0.932472 0.000000
vn 0.895163 -0.445738 0.000000
vn 0.895163 -0.445738 0.000000
vn -0.526432 0.850217 0.000000
vn -0.526432 0.850217 0.000000
vn 0.961826 -0.273663 0.000000
vn 0.961826 -0.273663 0.000000
vn -0.673696 0.739009 0.000000
vn 0.995734 -0.092268 0.000000
vn -0.673696 0.739009 0.000000
vn 0.995734 -0.092268 0.000000
vn -0.798017 0.602634 0.000000
vn -0.798017 0.602634 0.000000
vn -0.895163 0.445738 0.000000
vn -0.895163 0.445738 0.000000
vn -0.961826 0.273663 0.000000
vn -0.961826 0.273663 0.000000
vn -0.995734 0.092268 0.000000
vn -0.995734 0.092268 0.000000
vn -0.995734 -0.092268 0.000000
vn -0.995734 -0.092268 0.000000
vn -0.961826 -0.273663 0.000000
vn 0.000000 0.000000 -1.000000
vn 0.000000 0.000000 -1.000000
vn 0.000000 0.000000 -1.000000
vn 0.000000 0.000000 -1.000000
vn 0.000000 0.000000 -1.000000
vn 0.000000 0.000000 -1.000000
vn 0.000000 0.000000 -1.000000
vn 0.000000 0.000000 -1.000000
vn 0.000000 0.000000 -1.000000
vn 0.000000 0.000000 -1.000000
vn 0.000000 0.000000 -1.000000
vn 0.000000 0.000000 -1.000000
vn 0.000000 0.000000 -1.000000
vn 0.000000 0.000000 -1.000000
vn 0.000000 0.000000 -1.000000
vn 0.000000 0.000000 -1.000000
vn 0.000000 0.000000 -1.000000
vn 0.000000 0.000000 -1.000000
vn 0.000000 0.000000 -1.000000
vn -0.000000 -0.000000 -1.000000
vn -0.000000 -0.000000 -1.000000
vn -0.000000 -0.000000 -1.000000
vn -0.000000 -0.000000 -1.000000
vn 0.000000 -0.000000 -1.000000
vn 0.000000 -0.000000 -1.000000
vn 0.000000 -0.000000 -1.000000
vn 0.000000 -0.000000 -1.000000
vn 0.000000 -0.000000 -1.000000
vn 0.000000 -0.000000 -1.000000
vn 0.000000 -0.000000 -1.000000
vn 0.000000 -0.000000 -1.000000
vn 0.000000 0.000000 -1.000000
vn 0.000000 0.000000 1.000000
vn 0.000000 0.000000 1.000000
vn 0.000000 0.000000 1.000000
vn 0.000000 0.000000 1.000000
vn 0.000000 0.000000 1.000000
vn 0.000000 0.000000 1.000000
vn 0.000000 0.000000 1.000000
vn 0.000000 0.000000 1.000000
vn 0.000000 0.000000 1.000000
vn 0.000000 0.000000 1.000000
vn 0.000000 0.000000 1.000000
vn 0.000000 0.000000 1.000000
vn 0.000000 0.000000 1.000000
vn 0.000000 0.000000 1.000000
vn 0.000000 0.000000 1.000000
vn 0.000000 0.000000 1.000000
vn 0.000000 0.000000 1.000000
vn 0.000000 0.000000 1.000000
vn 0.000000 0.000000 1.000000
vn 0.000000 0.000000 1.000000
vn 0.000000 0.000000 1.000000
vn 0.000000 0.000000 1.000000
vn 0.000000 0.000000 1.000000
vn 0.000000 0.000000 1.000000
vn 0.000000 0.000000 1.000000
vn 0.000000 0.000000 1.000000
vn 0.000000 0.000000 1.000000
vn 0.000000 0.000000 1.000000
vn 0.000000 0.000000 1.000000
vn 0.000000 0.000000 1.000000
vn 0.000000 0.000000 1.000000
vn 0.000000 0.000000 1.000000
f 1//1 2//1 3//1
f 2//2 4//2 3//2
f 3//3 4//3 5//3
f 4//4 6//4 5//4
f 5//5 6//5 7//5
f 8//6 9//6 10//6
f 10//7 9//7 11//7
f 7//8 12//8 13//8
f 6//9 12//9 7//9
f 11//10 14//10 15//10
f 9//11 14//11 11//11
f 13//12 16//12 17//12
f 12//13 16//13 13//13
f 15//14 18//14 19//14
f 14//15 18//15 15//15
f 17//16 20//16 21//16
f 16//17 20//17 17//17
f 19//18 22//18 23//18
f 18//19 22//19 19//19
f 21//20 24//20 25//20
f 20//21 24//21 21//21
f 23//22 26//22 27//22
f 22//23 26//23 23//23
f 25//24 28//24 29//24
f 24//25 28//25 25//25
f 27//26 30//26 31//26
f 26//27 30//27 27//27
f 29//28 32//28 33//28
f 30//29 34//29 31//29
f 28//30 32//30 29//30
f 31//31 34//31 35//31
f 33//32 36//32 37//32
f 32//33 36//33 33//33
f 34//34 38//34 35//34
f 35//35 38//35 39//35
f 37//36 40//36 41//36
f 36//37 40//37 37//37
f 38//38 42//38 39//38
f 39//39 42//39 43//39
f 41//40 44//40 45//40
f 40//41 44//41 41//41
f 42//42 46//42 43//42
f 43//43 46//43 47//43
f 45//44 48//44 49//44
f 44//45 48//45 45//45
f 46//46 50//46 47//46
f 47//47 50//47 51//47
f 49//48 52//48 53//48
f 48//49 52//49 49//49
f 50//50 54//50 51//50
f 51//51 54//51 55//51
f 52//52 56//52 53//52
f 53//53 56//53 57//53
f 54//54 58//54 55//54
f 56//55 8//55 57//55
f 55//56 58//56 59//56
f 57//57 8//57 10//57
f 58//58 60//58 59//58
f 59//59 60//59 61//59
f 60//60 62//60 61//60
f 61//61 62//61 63//61
f 62//62 64//62 63//62
f 63//63 64//63 65//63
f 64//64 66//64 65//64
f 65//65 66//65 67//65
f 66//66 68//66 67//66
f 67//67 68//67 1//67
f 68//68 2//68 1//68
f 68//69 22//69 2//69
f 2//70 22//70 4//70
f 4//71 22//71 6//71
f 6//72 22//72 12//72
f 12//73 22//73 16//73
f 16//74 22//74 20//74
f 20//75 22//75 24//75
f 24//76 22//76 28//76
f 28//77 22//77 32//77
f 32//78 22//78 36//78
f 36//79 22//79 40//79
f 40//80 22//80 44//80
f 44//81 22//81 48//81
f 48//82 22//82 52//82
f 52//83 22//83 56//83
f 56//84 22//84 8//84
f 8//85 22//85 9//85
f 9//86 22//86 14//86
f 14//87 22//87 18//87
f 26//88 22//88 30//88
f 30//89 22//89 34//89
f 34//90 22//90 38//90
f 38//91 22//91 42//91
f 42//92 22//92 46//92
f 46//93 22//93 50//93
f 50//94 22//94 54//94
f 54//95 22//95 58//95
f 58//96 22//96 60//96
f 60//97 22//97 62//97
f 62//98 22//98 64//98
f 64//99 22//99 66//99
f 66//100 22//100 68//100
f 23//101 1//101 3//101
f 23//102 3//102 5//102
f 23//103 5//103 7//103
f 23//104 7//104 13//104
f 23//105 13//105 17//105
f 23//106 17//106 21//106
f 23//107 21//107 25//107
f 23//108 25//108 29//108
f 23//109 29//109 33//109
f 23//110 33//110 37//110
f 23//111 37//111 41//111
f 23//112 41//112 45//112
f 23//113 45//113 49//113
f 23//114 49//114 53//114
f 23//115 53//115 57//115
f 23//116 57//116 10//116
f 23//117 10//117 11//117
f 23//118 11//118 15//118
f 23//119 15//119 19//119
f 23//120 27//120 31//120
f 23//121 31//121 35//121
f 23//122 35//122 39//122
f 23//123 39//123 43//123
f 23//124 43//124 47//124
f 23//125 47//125 51//125
f 23//126 51//126 55//126
f 23//127 55//127 59//127
f 23//128 59//128 61//128
f 23//129 61//129 63//129
f 23//130 63//130 65//130
f 23//131 65//131 67//131
f 23//132 67//132 1//132
